<svg xmlns="http://www.w3.org/2000/svg" viewBox="0 0 2080 1034" preserveAspectRatio="xMidYMid" width="2080" height="1034" xmlns:xlink="http://www.w3.org/1999/xlink" style="shape-rendering:auto;display:block;background-position-x:0%;background-position-y:0%;background-size:auto;background-origin:padding-box;background-clip:border-box;background:scroll rgb(255, 255, 255) none  repeat;width:2080px;height:1034px;;animation:none"><g><path stroke="none" fill="none" d="M 388.33134782820554 217.92117405452626
c 0 21.31774616118226 -5.216044273480765 6.123182407999161 -11.339226681479925 6.123182407999161
S 365.65289446524565 239.23892021570853 365.65289446524565 217.92117405452626
s 5.216044273480765 -6.123182407999161 11.339226681479925 -6.123182407999161
S 388.33134782820554 196.603427893344 388.33134782820554 217.92117405452626
z" id="path0" style="fill:none;;animation:none"></path>


<circle fill="#ff708e" r="6.44810024634365" cy="0" cx="0" transform="matrix(1,0,0,1,1915.7640380859375,690.3783569335938)" style="fill:rgb(255, 112, 142);;animation:none"></circle>
<path stroke="none" fill="none" d="M 887.9737360292155 709.1912577277889
c 0 31.136202235166873 -7.618432461796149 8.943377237760698 -16.561809699556846 8.943377237760698
S 854.8501166301018 740.3274599629557 854.8501166301018 709.1912577277889
s 7.618432461796149 -8.943377237760698 16.561809699556846 -8.943377237760698
S 887.9737360292155 678.055055492622 887.9737360292155 709.1912577277889
z" id="path1" style="fill:none;;animation:none"></path>


<circle fill="#e0ff77" r="7.852573779012452" cy="0" cx="0" transform="matrix(1,0,0,1,1594.0784912109375,469.2923889160156)" style="fill:rgb(224, 255, 119);;animation:none"></circle>
<path stroke="none" fill="none" d="M 922.8669495042625 550.7904887674661
c 0 23.79712736953015 -5.8227013776509935 6.835345095503341 -12.658046473154334 6.835345095503341
S 897.5508565579539 574.5876161369962 897.5508565579539 550.7904887674661
s 5.8227013776509935 -6.835345095503341 12.658046473154334 -6.835345095503341
S 922.8669495042625 526.9933613979359 922.8669495042625 550.7904887674661
z" id="path2" style="fill:none;;animation:none"></path>


<circle fill="#e0ff77" r="6.152114098450134" cy="0" cx="0" transform="matrix(1,0,0,1,1670.95556640625,883.444091796875)" style="fill:rgb(224, 255, 119);;animation:none"></circle>
<path stroke="none" fill="none" d="M 1649.9843619731712 628.3694621600486
c 0 30.249730660735956 -7.401529842520499 8.688752423828413 -16.09028226634891 8.688752423828413
S 1617.8037974404735 658.6191928207845 1617.8037974404735 628.3694621600486
s 7.401529842520499 -8.688752423828413 16.09028226634891 -8.688752423828413
S 1649.9843619731712 598.1197314993126 1649.9843619731712 628.3694621600486
z" id="path3" style="fill:none;;animation:none"></path>


<circle fill="#de9dd6" r="6.829721443653334" cy="0" cx="0" transform="matrix(1,0,0,1,1042.689697265625,164.91036987304688)" style="fill:rgb(222, 157, 214);;animation:none"></circle>
<path stroke="none" fill="none" d="M 451.50320395050977 958.8453108875607
c 0 26.47823308594605 -6.478716606135736 7.605449928941951 -14.084166535077687 7.605449928941951
S 423.33487088035434 985.3235439735067 423.33487088035434 958.8453108875607
s 6.478716606135736 -7.605449928941951 14.084166535077687 -7.605449928941951
S 451.50320395050977 932.3670778016146 451.50320395050977 958.8453108875607
z" id="path4" style="fill:none;;animation:none"></path>


<circle fill="#de9dd6" r="6.024541831752378" cy="0" cx="0" transform="matrix(1,0,0,1,1172.6380615234375,537.85595703125)" style="fill:rgb(222, 157, 214);;animation:none"></circle>
<path stroke="none" fill="none" d="M 1830.7249327727593 756.134627969577
c 0 26.61805726530378 -6.512928905340286 7.6456121932255545 -14.15854109856584 7.6456121932255545
S 1802.4078505756277 782.7526852348808 1802.4078505756277 756.134627969577
s 6.512928905340286 -7.6456121932255545 14.15854109856584 -7.6456121932255545
S 1830.7249327727593 729.5165707042731 1830.7249327727593 756.134627969577
z" id="path5" style="fill:none;;animation:none"></path>


<circle fill="#de9dd6" r="5.157047724685707" cy="0" cx="0" transform="matrix(1,0,0,1,274.6451110839844,581.7235107421875)" style="fill:rgb(222, 157, 214);;animation:none"></circle>
<path stroke="none" fill="none" d="M 278.8684324658553 286.26563702438386
c 0 36.56520833885761 -8.946806295677925 10.502772607969739 -19.449578903647662 10.502772607969739
S 239.96927465855998 322.83084536324145 239.96927465855998 286.26563702438386
s 8.946806295677925 -10.502772607969739 19.449578903647662 -10.502772607969739
S 278.8684324658553 249.70042868552625 278.8684324658553 286.26563702438386
z" id="path6" style="fill:none;;animation:none"></path>


<circle fill="#e0ff77" r="4.124350017428525" cy="0" cx="0" transform="matrix(1,0,0,1,1898.933349609375,335.5631103515625)" style="fill:rgb(224, 255, 119);;animation:none"></circle>
<path stroke="none" fill="none" d="M 1414.8114627767416 893.6660691620963
c 0 35.63105235300404 -8.718236214032903 10.234451207777756 -18.95268742181066 10.234451207777756
S 1376.9060879331203 929.2971215151003 1376.9060879331203 893.6660691620963
s 8.718236214032903 -10.234451207777756 18.95268742181066 -10.234451207777756
S 1414.8114627767416 858.0350168090922 1414.8114627767416 893.6660691620963
z" id="path7" style="fill:none;;animation:none"></path>


<circle fill="#51cacc" r="7.00289867708209" cy="0" cx="0" transform="matrix(1,0,0,1,958.6998901367188,707.4991455078125)" style="fill:rgb(81, 202, 204);;animation:none"></circle>
<path stroke="none" fill="none" d="M 1381.3680006660234 869.278066235296
c 0 26.44256703010881 -6.469989805239388 7.595205423541891 -14.06519522878128 7.595205423541891
S 1353.2376102084609 895.7206332654048 1353.2376102084609 869.278066235296
s 6.469989805239388 -7.595205423541891 14.06519522878128 -7.595205423541891
S 1381.3680006660234 842.8354992051873 1381.3680006660234 869.278066235296
z" id="path8" style="fill:none;;animation:none"></path>


<circle fill="#de9dd6" r="4.833156876014124" cy="0" cx="0" transform="matrix(1,0,0,1,332.7088928222656,97.97614288330078)" style="fill:rgb(222, 157, 214);;animation:none"></circle>
<path stroke="none" fill="none" d="M 1598.954002342888 810.8764541215699
c 0 25.672577379476166 -6.281588082212252 7.374038183466558 -13.65562626567881 7.374038183466558
S 1571.6427498115304 836.549031501046 1571.6427498115304 810.8764541215699
s 6.281588082212252 -7.374038183466558 13.65562626567881 -7.374038183466558
S 1598.954002342888 785.2038767420937 1598.954002342888 810.8764541215699
z" id="path9" style="fill:none;;animation:none"></path>


<circle fill="#ff708e" r="4.681792283207383" cy="0" cx="0" transform="matrix(1,0,0,1,495.1483154296875,725.2938232421875)" style="fill:rgb(255, 112, 142);;animation:none"></circle>
<path stroke="none" fill="none" d="M 1347.0587248519466 103.06939521789856
c 0 27.32506557629914 -6.685920300583831 7.8486890485114555 -14.534609349095287 7.8486890485114555
S 1317.989506153756 130.3944607941977 1317.989506153756 103.06939521789856
s 6.685920300583831 -7.8486890485114555 14.534609349095287 -7.8486890485114555
S 1347.0587248519466 75.74432964159942 1347.0587248519466 103.06939521789856
z" id="path10" style="fill:none;;animation:none"></path>


<circle fill="#ff708e" r="6.249028696066707" cy="0" cx="0" transform="matrix(1,0,0,1,167.434326171875,181.19451904296875)" style="fill:rgb(255, 112, 142);;animation:none"></circle>
<path stroke="none" fill="none" d="M 327.08174695421997 863.7407878524299
c 0 35.24866543871265 -8.624673458408413 10.1246166685664 -18.749290126974813 10.1246166685664
S 289.58316670027034 898.9894532911426 289.58316670027034 863.7407878524299
s 8.624673458408413 -10.1246166685664 18.749290126974813 -10.1246166685664
S 327.08174695421997 828.4921224137172 327.08174695421997 863.7407878524299
z" id="path11" style="fill:none;;animation:none"></path>


<circle fill="#51cacc" r="4.757886618884815" cy="0" cx="0" transform="matrix(1,0,0,1,1058.002685546875,899.5121459960938)" style="fill:rgb(81, 202, 204);;animation:none"></circle>
<path stroke="none" fill="none" d="M 426.6037511899811 312.4630469936059
c 0 25.942070521906867 -6.347527893658063 7.451445788207292 -13.798973681865354 7.451445788207292
S 399.0058038262504 338.40511751551276 399.0058038262504 312.4630469936059
s 6.347527893658063 -7.451445788207292 13.798973681865354 -7.451445788207292
S 426.6037511899811 286.520976471699 426.6037511899811 312.4630469936059
z" id="path12" style="fill:none;;animation:none"></path>


<circle fill="#e0ff77" r="7.97855087701825" cy="0" cx="0" transform="matrix(1,0,0,1,505.26751708984375,384.06024169921875)" style="fill:rgb(224, 255, 119);;animation:none"></circle>
<path stroke="none" fill="none" d="M 1322.2266977591642 414.58093915131434
c 0 19.728730232430042 -4.827242503679691 5.666762939102247 -10.494005442781937 5.666762939102247
S 1301.2386868736005 434.3096693837444 1301.2386868736005 414.58093915131434
s 4.827242503679691 -5.666762939102247 10.494005442781937 -5.666762939102247
S 1322.2266977591642 394.8522089188843 1322.2266977591642 414.58093915131434
z" id="path13" style="fill:none;;animation:none"></path>


<circle fill="#51cacc" r="5.719495517183635" cy="0" cx="0" transform="matrix(1,0,0,1,1384.4219970703125,156.52291870117188)" style="fill:rgb(81, 202, 204);;animation:none"></circle>
<path stroke="none" fill="none" d="M 325.424363726381 724.5801518687474
c 0 29.4718452406429 -7.211196175901985 8.465317249971896 -15.676513425873882 8.465317249971896
S 294.0713368746332 754.0519971093903 294.0713368746332 724.5801518687474
s 7.211196175901985 -8.465317249971896 15.676513425873882 -8.465317249971896
S 325.424363726381 695.1083066281045 325.424363726381 724.5801518687474
z" id="path14" style="fill:none;;animation:none"></path>


<circle fill="#ff708e" r="7.054389658900631" cy="0" cx="0" transform="matrix(1,0,0,1,2035.1845703125,697.7237548828125)" style="fill:rgb(255, 112, 142);;animation:none"></circle>
<path stroke="none" fill="none" d="M 426.792187731155 664.1883596014113
c 0 32.49452291768523 -7.950787522412344 9.333533178484057 -17.2843207008964 9.333533178484057
S 392.22354632936225 696.6828825190966 392.22354632936225 664.1883596014113
s 7.950787522412344 -9.333533178484057 17.2843207008964 -9.333533178484057
S 426.792187731155 631.6938366837261 426.792187731155 664.1883596014113
z" id="path15" style="fill:none;;animation:none"></path>


<circle fill="#e0ff77" r="5.306223660211458" cy="0" cx="0" transform="matrix(1,0,0,1,401.45587158203125,1031.5869140625)" style="fill:rgb(224, 255, 119);;animation:none"></circle>
<path stroke="none" fill="none" d="M 1043.1799500749828 511.017863451925
c 0 21.404372435855596 -5.237240064092326 6.148064423064905 -11.385304487157232 6.148064423064905
S 1020.4093411006683 532.4222358877806 1020.4093411006683 511.017863451925
s 5.237240064092326 -6.148064423064905 11.385304487157232 -6.148064423064905
S 1043.1799500749828 489.6134910160694 1043.1799500749828 511.017863451925
z" id="path16" style="fill:none;;animation:none"></path>


<circle fill="#ff708e" r="4.673786128228206" cy="0" cx="0" transform="matrix(1,0,0,1,-8.997421264648438,525.8526000976562)" style="fill:rgb(255, 112, 142);;animation:none"></circle>
<path stroke="none" fill="none" d="M 753.0099526858545 130.59756866668226
c 0 34.66714485038793 -8.482386505945982 9.95758415915398 -18.43997066509996 9.95758415915398
S 716.1300113556546 165.2647135170702 716.1300113556546 130.59756866668226
s 8.482386505945982 -9.95758415915398 18.43997066509996 -9.95758415915398
S 753.0099526858545 95.93042381629434 753.0099526858545 130.59756866668226
z" id="path17" style="fill:none;;animation:none"></path>


<circle fill="#51cacc" r="5.005229387279519" cy="0" cx="0" transform="matrix(1,0,0,1,355.9250793457031,914.0673828125)" style="fill:rgb(81, 202, 204);;animation:none"></circle>
<path stroke="none" fill="none" d="M 642.7236963596314 910.239019876414
c 0 27.327762039600522 -6.686580073519275 7.849463564566108 -14.536043638085383 7.849463564566108
S 613.6516090834606 937.5667819160145 613.6516090834606 910.239019876414
s 6.686580073519275 -7.849463564566108 14.536043638085383 -7.849463564566108
S 642.7236963596314 882.9112578368134 642.7236963596314 910.239019876414
z" id="path18" style="fill:none;;animation:none"></path>


<circle fill="#de9dd6" r="5.790559807441347" cy="0" cx="0" transform="matrix(1,0,0,1,59.24834442138672,678.8309936523438)" style="fill:rgb(222, 157, 214);;animation:none"></circle>
<path stroke="none" fill="none" d="M 1900.835993574337 52.86718634950291
c 0 26.509058401658738 -6.486258970618627 7.614304008987085 -14.10056297960571 7.614304008987085
S 1872.6348676151256 79.37624475116165 1872.6348676151256 52.86718634950291
s 6.486258970618627 -7.614304008987085 14.10056297960571 -7.614304008987085
S 1900.835993574337 26.35812794784417 1900.835993574337 52.86718634950291
z" id="path19" style="fill:none;;animation:none"></path>


<circle fill="#e0ff77" r="6.268170321090033" cy="0" cx="0" transform="matrix(1,0,0,1,680.288330078125,941.3524780273438)" style="fill:rgb(224, 255, 119);;animation:none"></circle>
<path stroke="none" fill="none" d="M 448.59868656098797 721.4092293681401
c 0 35.062680100407086 -8.579166407546413 10.071195347989269 -18.650361755535684 10.071195347989269
S 411.2979630499166 756.4719094685472 411.2979630499166 721.4092293681401
s 8.579166407546413 -10.071195347989269 18.650361755535684 -10.071195347989269
S 448.59868656098797 686.346549267733 448.59868656098797 721.4092293681401
z" id="path20" style="fill:none;;animation:none"></path>


<circle fill="#51cacc" r="7.188904053307965" cy="0" cx="0" transform="matrix(1,0,0,1,327.3497009277344,795.5922241210938)" style="fill:rgb(81, 202, 204);;animation:none"></circle>
<path stroke="none" fill="none" d="M 1889.7851468170481 212.67566773993806
c 0 30.413764852722558 -7.441665868219348 8.735868627909671 -16.17753449612902 8.735868627909671
S 1857.43007782479 243.08943259266061 1857.43007782479 212.67566773993806
s 7.441665868219348 -8.735868627909671 16.17753449612902 -8.735868627909671
S 1889.7851468170481 182.2619028872155 1889.7851468170481 212.67566773993806
z" id="path21" style="fill:none;;animation:none"></path>


<circle fill="#9df871" r="5.547441060742285" cy="0" cx="0" transform="matrix(1,0,0,1,1212.2274169921875,412.2850646972656)" style="fill:rgb(157, 248, 113);;animation:none"></circle>
<path stroke="none" fill="none" d="M 1840.8343849703456 738.3142928740316
c 0 35.55901509365724 -8.70061007610762 10.213759654561121 -18.914369730668742 10.213759654561121
S 1803.005645509008 773.8733079676888 1803.005645509008 738.3142928740316
s 8.70061007610762 -10.213759654561121 18.914369730668742 -10.213759654561121
S 1840.8343849703456 702.7552777803744 1840.8343849703456 738.3142928740316
z" id="path22" style="fill:none;;animation:none"></path>


<circle fill="#9df871" r="6.647594276532119" cy="0" cx="0" transform="matrix(1,0,0,1,582.0536499023438,366.8415222167969)" style="fill:rgb(157, 248, 113);;animation:none"></circle>
<path stroke="none" fill="none" d="M 1014.4311716968978 108.26478164332234
c 0 30.662878661438622 -7.502619246947748 8.80742259424301 -16.310041841190756 8.80742259424301
S 981.8110880145161 138.92766030476096 981.8110880145161 108.26478164332234
s 7.502619246947748 -8.80742259424301 16.310041841190756 -8.80742259424301
S 1014.4311716968978 77.60190298188371 1014.4311716968978 108.26478164332234
z" id="path23" style="fill:none;;animation:none"></path>


<circle fill="#e0ff77" r="6.692145191497433" cy="0" cx="0" transform="matrix(1,0,0,1,1376.3238525390625,333.75067138671875)" style="fill:rgb(224, 255, 119);;animation:none"></circle>
<path stroke="none" fill="none" d="M 1617.9724690934029 665.1634798530484
c 0 29.606860362942005 -7.244231790932617 8.504098189355682 -15.7483299802883 8.504098189355682
S 1586.4758091328265 694.7703402159905 1586.4758091328265 665.1634798530484
s 7.244231790932617 -8.504098189355682 15.7483299802883 -8.504098189355682
S 1617.9724690934029 635.5566194901064 1617.9724690934029 665.1634798530484
z" id="path24" style="fill:none;;animation:none"></path>


<circle fill="#e0ff77" r="6.802047659748092" cy="0" cx="0" transform="matrix(1,0,0,1,642.3463134765625,634.7666015625)" style="fill:rgb(224, 255, 119);;animation:none"></circle>
<path stroke="none" fill="none" d="M 623.1466350930606 511.68027320650543
c 0 18.933843088365517 -4.632748840770286 5.438444291339032 -10.071193132109318 5.438444291339032
S 603.0042488288419 530.614116294871 603.0042488288419 511.68027320650543
s 4.632748840770286 -5.438444291339032 10.071193132109318 -5.438444291339032
S 623.1466350930606 492.7464301181399 623.1466350930606 511.68027320650543
z" id="path25" style="fill:none;;animation:none"></path>


<circle fill="#9df871" r="7.168903280115016" cy="0" cx="0" transform="matrix(1,0,0,1,672.5387573242188,866.0540161132812)" style="fill:rgb(157, 248, 113);;animation:none"></circle>
<path stroke="none" fill="none" d="M 441.74914423956176 950.5813198676894
c 0 30.105404439572876 -7.36621597989549 8.647297019877316 -16.013512999772807 8.647297019877316
S 409.7221182400162 980.6867243072624 409.7221182400162 950.5813198676894
s 7.36621597989549 -8.647297019877316 16.013512999772807 -8.647297019877316
S 441.74914423956176 920.4759154281165 441.74914423956176 950.5813198676894
z" id="path26" style="fill:none;;animation:none"></path>


<circle fill="#51cacc" r="4.955944433477824" cy="0" cx="0" transform="matrix(1,0,0,1,931.0870971679688,409.88568115234375)" style="fill:rgb(81, 202, 204);;animation:none"></circle>
<path stroke="none" fill="none" d="M 762.6042313334918 115.09080722204993
c 0 29.8573542978239 -7.305522860105847 8.576048574906865 -15.881571435012711 8.576048574906865
S 730.8410884634665 144.94816151987382 730.8410884634665 115.09080722204993
s 7.305522860105847 -8.576048574906865 15.881571435012711 -8.576048574906865
S 762.6042313334918 85.23345292422603 762.6042313334918 115.09080722204993
z" id="path27" style="fill:none;;animation:none"></path>


<circle fill="#e0ff77" r="6.6940874173700955" cy="0" cx="0" transform="matrix(1,0,0,1,957.6903686523438,67.19760131835938)" style="fill:rgb(224, 255, 119);;animation:none"></circle>
<path stroke="none" fill="none" d="M 897.4381060489709 787.7962795980391
c 0 25.73388428677146 -6.2965887084653565 7.391647614285419 -13.688236322750775 7.391647614285419
S 870.0616334034694 813.5301638848106 870.0616334034694 787.7962795980391
s 6.2965887084653565 -7.391647614285419 13.688236322750775 -7.391647614285419
S 897.4381060489709 762.0623953112676 897.4381060489709 787.7962795980391
z" id="path28" style="fill:none;;animation:none"></path>


<circle fill="#ff708e" r="4.940759986261251" cy="0" cx="0" transform="matrix(1,0,0,1,1529.052490234375,270.8094177246094)" style="fill:rgb(255, 112, 142);;animation:none"></circle>
<path stroke="none" fill="none" d="M 164.9632339871082 584.2821316313862
c 0 29.866811744123773 -7.307836916115391 8.578765075439808 -15.886601991555198 8.578765075439808
S 133.19003000399778 614.1489433755099 133.19003000399778 584.2821316313862
s 7.307836916115391 -8.578765075439808 15.886601991555198 -8.578765075439808
S 164.9632339871082 554.4153198872624 164.9632339871082 584.2821316313862
z" id="path29" style="fill:none;;animation:none"></path>


<circle fill="#9df871" r="7.179960348717541" cy="0" cx="0" transform="matrix(1,0,0,1,1148.92333984375,869.1336669921875)" style="fill:rgb(157, 248, 113);;animation:none"></circle>
<g></g></g><!-- [ldio] generated by https://loading.io --></svg>